<svg xmlns="http://www.w3.org/2000/svg" viewBox="0 0 1254 1254">
<rect width="1254" height="1254" fill="#fff" rx="200"/>
<g transform="translate(0,1254) scale(0.1,-0.1)" fill="#000">
<path d="M3920 10688 c-18 -13 -43 -36 -54 -51 -21 -28 -21 -38 -24 -605 l-3 -577 -57 -25 c-129 -56 -258 -230 -283 -380 -36 -215 80 -440 276 -540 l65 -33 0 -690 0 -690 25 -44 c55 -93 176 -107 254 -29 l36 36 3 705 2 704 68 33 c89 44 198 151 238 235 l29 62 1210 -2 1210 -2 66 -32 c70 -35 34 4 589 -637 253 -292 279 -324 306 -377 23 -47 82 -269 120 -460 l18 -85 -49 -45 c-26 -24 -65 -70 -86 -102 -57 -87 -73 -152 -73 -282 1 -124 19 -190 77 -265 69 -92 74 -71 -43 -183 -104 -99 -175 -157 -192 -157 -4 0 -8 133 -8 294 0 443 -27 592 -147 829 -132 259 -335 450 -584 552 -160 64 -210 70 -624 70 l-370 -1 -99 -27 c-138 -38 -227 -77 -331 -145 -222 -143 -389 -363 -474 -622 -65 -200 -64 -187 -70 -957 l-6 -703 -235 -4 c-246 -4 -310 -13 -415 -57 -120 -51 -268 -172 -344 -283 -43 -62 -94 -175 -116 -256 -15 -55 -19 -120 -22 -426 l-5 -360 -61 -29 c-109 -52 -215 -167 -262 -284 -126 -309 78 -654 415 -703 223 -33 447 79 544 273 45 91 60 163 53 274 -6 111 -36 192 -108 287 -51 68 -167 158 -223 172 l-26 6 0 314 c0 172 5 338 10 367 31 163 171 314 324 349 26 6 143 11 259 11 l212 1 5 -958 5 -959 23 -38 c44 -69 116 -107 207 -107 65 0 114 19 161 62 77 71 74 22 74 1055 l0 913 883 -2 882 -3 5 -940 c6 -1049 0 -970 76 -1033 48 -40 110 -56 186 -49 75 7 132 43 168 107 l25 45 3 1321 2 1321 48 7 c26 3 80 22 120 41 61 29 101 62 260 214 l187 180 55 1 c235 1 444 188 481 430 10 63 9 88 -4 154 -23 112 -59 180 -138 259 -77 77 -162 122 -263 140 l-65 11 -10 45 c-89 403 -111 478 -165 575 -45 80 -55 92 -297 372 -114 132 -271 313 -349 404 -233 271 -292 324 -421 376 -145 59 -78 56 -1274 59 -605 2 -1146 4 -1202 4 l-102 1 -26 57 c-53 116 -171 232 -272 267 l-38 13 -5 579 c-5 537 -6 582 -23 607 -44 68 -151 89 -217 45z m175 -1507 c23 -10 59 -39 82 -65 79 -89 80 -209 5 -296 -46 -55 -101 -80 -175 -80 -244 -1 -315 333 -93 436 61 29 126 30 181 5z m2380 -1711 c127 -7 175 -13 230 -32 165 -57 294 -176 384 -355 83 -166 93 -274 89 -998 l-3 -570 -882 -3 -883 -2 0 624 c0 395 4 653 11 703 26 185 108 355 223 460 59 54 180 121 266 148 98 31 303 40 565 25z m1884 -476 c109 -32 177 -147 150 -256 -25 -105 -141 -181 -248 -163 -79 13 -150 80 -172 160 -30 108 51 238 165 265 46 11 48 11 105 -6z m-4321 -3199 c101 -30 164 -116 164 -223 0 -73 -12 -101 -62 -156 -102 -110 -284 -97 -367 27 -39 58 -49 119 -33 189 17 70 96 151 161 166 63 14 79 14 137 -3z"/>
</g>
</svg>